<?xml version="1.0" standalone="no"?> <!DOCTYPE svg PUBLIC "-//W3C//DTD SVG 1.0//EN" "http://www.w3.org/TR/2001/REC-SVG-20010904/DTD/svg10.dtd" > <svg xmlns="http://www.w3.org/2000/svg" width="100%" height="100%">
<defs >
<font id="JalaneLight" horiz-adv-x="405" ><font-face
    font-family="JalaneLight"
    units-per-em="1000"
    panose-1="0 0 0 0 0 0 0 0 0 0"
    ascent="750"
    descent="-250"
    alphabetic="0" />
<missing-glyph horiz-adv-x="241" />
<glyph unicode=" " glyph-name="space" horiz-adv-x="241" />
<glyph unicode="!" glyph-name="exclam" horiz-adv-x="118" d="M0 217V719H18V217H0ZM0 98H18V0H0V98Z" />
<glyph unicode="&quot;" glyph-name="quotedbl" horiz-adv-x="203" d="M30 719L22 466H8L0 719H30ZM103 719L95 466H82L74 719H103Z" />
<glyph unicode="$" glyph-name="dollar" horiz-adv-x="509" d="M247 401Q294 399 325 385T375 348T401 296T409 233V169Q409 136 402 107T375 54T325 17T247 1V-54H228V1L205 0Q198 0 192 0T180 2V-54H161V4Q123 9 88 20T25 46V67Q51 53 87 40T161 21V383Q114
385 84 399T34 437T8 489T0 551Q0 583 7 612T34 665T83 702T161 719V774H180V719H205Q211 719 217 719T228 718V774H247V716Q285 711 321 699T385 673V652Q359 666 323 679T247 698V401ZM180 701V401H228V700Q222 701 216 701T205 701H180ZM19 551Q19 521 26 495T50
449T94 417T161 402V700Q122 698 95 686T51 653T27 607T19 551ZM228 19V383H180V19H205H228ZM391 233Q391 263 384 289T359 335T315 368T247 383V19Q287 21 314 33T359 66T383 112T391 169V233Z" />
<glyph unicode="&apos;" glyph-name="quotesingle" horiz-adv-x="130" d="M30 719V559Q30 496 -2 466L-15 479Q-2 491 5 510T12 559V580H0V719H30Z" />
<glyph unicode="(" glyph-name="parenleft" horiz-adv-x="226" d="M19 -58Q19 -87 26 -106T45 -137Q69 -161 117 -161H126V-179H117Q91 -179 70 -173T32 -151Q0 -119 0 -58V597Q0 660 32 690Q48 705 69 711T117 718H126V700H117Q69 700 45 676Q33 665 26 646T19 597V-58Z" />
<glyph unicode=")" glyph-name="parenright" horiz-adv-x="225" d="M107 597Q107 626 100 645T81 676Q55 700 9 700H0V718H9Q35 718 56 712T93 690Q125 660 125 597V-58Q125 -119 93 -151Q78 -166 57 -172T9 -179H0V-161H9Q55 -161 81 -137Q93 -126 100 -107T107
-58V597Z" />
<glyph unicode="*" glyph-name="asterisk" horiz-adv-x="313" d="M213 627V597H142L192 547L171 526L121 576V505H91V576L41 526L20 547L70 597H0V627H70L20 677L41 698L91 648V719H121V648L171 698L192 677L142 627H213V627Z" />
<glyph unicode="+" glyph-name="plus" horiz-adv-x="513" d="M413 373H0V402H413V373ZM191 181V594H221V181H191Z" />
<glyph unicode="," glyph-name="comma" horiz-adv-x="130" d="M30 139V-21Q30 -84 -2 -114L-14 -101Q-2 -89 5 -70T12 -21V0H0V139H30Z" />
<glyph unicode="-" glyph-name="hyphen" horiz-adv-x="395" d="M0 259V289H295V259H0Z" />
<glyph unicode="." glyph-name="period" horiz-adv-x="130" d="M30 0H0V139H30V0Z" />
<glyph unicode="/" glyph-name="slash" horiz-adv-x="345" d="M263 719H285L22 0H0L263 719V719Z" />
<glyph unicode="0" glyph-name="zero" horiz-adv-x="527" d="M427 196Q427 127 404 85T348 20Q314 -3 278 -10T214 -18Q186 -18 150 -11T80 20Q46 43 23 85T0 196V505Q0 573 23 615T80 681Q113 704 149 711T214 719Q242 719 278 712T348 681Q381 658 404 616T427
505V196ZM409 505Q408 570 388 607T337 666Q307 686 274 693T214 700Q188 700 154 693T90 666Q60 645 40 608T19 505V196Q19 131 39 94T90 35Q120 14 154 7T214 0Q240 0 273 7T337 35Q367 56 387 93T409 196V505Z" />
<glyph unicode="1" glyph-name="one" horiz-adv-x="375" d="M242 18V0H77V18H151V643Q148 638 145 634T137 626Q121 611 100 605T53 598H43V616H52Q101 616 124 639Q150 663 151 718H169V18H242Z" />
<glyph unicode="2" glyph-name="two" horiz-adv-x="526" d="M253 230Q242 220 224 203T185 167T140 126T95 84T54 46T23 18H426V-1H0V21Q0 21 16 36T56 73T110 123T166 174T213 218T241 243Q253 255 272 273T313 314Q335 337 354 364T388 422Q408 464 408 505Q408
569 387 607T336 665Q307 686 273 693T213 700Q187 700 153 693T90 665Q60 645 39 607T18 505H0Q-1 573 22 615T79 681Q113 704 149 711T213 718Q241 718 277 711T347 681Q381 658 404 616T426 505Q426 481 421 459T405 415Q395 393 383 374T356 336Q327 300 299
273T253 230Z" />
<glyph unicode="3" glyph-name="three" horiz-adv-x="527" d="M395 373Q427 343 427 281V214Q427 146 404 104T347 38Q314 15 278 8T213 0Q185 0 149 7T79 38Q46 61 23 103T0 214H18Q18 149 39 112T90 53Q119 32 153 25T213 18Q239 18 273 25T337 53Q366 74 387
111T408 214V281Q408 310 401 329T382 360Q358 384 310 384H158V402H310Q357 402 382 425Q394 437 401 456T408 505Q408 569 387 607T337 665Q307 686 273 693T213 700Q187 700 153 693T90 665Q60 645 39 607T18 505H0Q0 573 23 615T79 681Q113 704 149 711T213
718Q241 718 277 711T347 681Q381 658 404 616T427 505Q425 441 395 412Q388 406 381 401T364 393Q383 385 395 373Z" />
<glyph unicode="4" glyph-name="four" horiz-adv-x="526" d="M426 718V0H407V262Q389 257 357 249T285 232T201 218T117 212Q91 212 70 218T32 240Q0 272 0 333V718H19V333Q19 304 26 285T45 254Q69 230 117 230Q157 230 201 236T284 250T356 266T407 280V718H426Z" />
<glyph unicode="5" glyph-name="five" horiz-adv-x="508" d="M370 402Q387 388 397 368T408 320V214Q408 146 385 104T329 38Q295 15 259 8T194 0H118Q97 0 76 5T38 24Q21 37 11 57T0 106H18Q18 82 26 66T49 39Q63 28 81 23T118 18H195Q221 18 255 25T318 53Q348
74 369 111T390 214V320Q390 344 382 360T359 387Q330 408 290 408H0V597Q0 660 32 690Q48 705 69 711T116 718Q156 718 200 713T283 699T356 683T407 669V650Q389 655 356 663T284 680T200 694T116 700Q68 700 44 677Q32 665 25 646T18 597V426H290Q311 426 332
421T370 402Z" />
<glyph unicode="6" glyph-name="six" horiz-adv-x="508" d="M370 439Q387 425 397 405T408 357V214Q408 146 385 104T329 38Q295 15 259 8T194 0H118Q97 0 76 5T38 24Q21 37 10 57T0 106V597Q0 659 31 690Q47 705 68 711T116 718Q156 718 200 713T283 699T356
683T407 669V650Q389 655 356 663T284 680T200 694T116 700Q68 700 44 677Q32 665 25 646T18 597V350Q29 376 44 394T79 425Q113 448 149 455T213 463H290Q311 463 332 458T370 439ZM390 357Q390 381 382 397T359 424Q330 445 290 445H213Q187 445 153 438T90 410Q60
389 39 352T18 249V106Q18 82 26 66T49 39Q63 28 81 23T118 18H195Q221 18 254 25T318 53Q348 74 369 111T390 214V357Z" />
<glyph unicode="7" glyph-name="seven" horiz-adv-x="464" d="M384 700L115 0H96L365 700H0V718H384V700Z" />
<glyph unicode="8" glyph-name="eight" horiz-adv-x="527" d="M388 411Q405 398 416 378T427 329V195Q427 127 404 85T347 20Q314 -3 278 -10T213 -18Q185 -18 149 -11T79 20Q46 43 23 85T0 195V329Q0 357 10 377T38 411Q49 419 66 426Q49 433 38 441Q21 454 11
474T0 523Q0 591 23 633T79 699Q113 722 149 729T213 737Q241 737 277 730T347 699Q381 676 404 634T427 523Q427 495 416 475T388 441Q377 433 360 426Q377 419 388 411ZM308 435Q327 435 345 440T377 456Q391 467 399 483T408 523Q408 588 387 625T337 684Q307
704 273 711T213 718Q187 718 153 711T90 684Q60 663 39 626T18 523Q18 499 26 483T49 456Q63 445 81 440T118 435H308ZM408 329Q408 353 400 369T377 396Q363 407 345 412T308 417H118Q99 417 81 412T49 396Q35 385 27 369T18 329V195Q18 131 39 93T90 35Q119
14 153 7T213 0Q239 0 273 7T337 35Q366 55 387 93T408 195V329Z" />
<glyph unicode="9" glyph-name="nine" horiz-adv-x="508" d="M38 280Q21 293 10 313T0 361V505Q-1 573 22 615T79 681Q113 704 149 711T213 718H289Q311 718 332 713T370 694Q387 681 397 661T408 612V121Q408 60 376 28Q360 13 339 7T292 0Q251 0 207 6T124 20T52
36T1 50V68Q19 63 51 55T123 38T207 24T292 18Q339 18 363 42Q376 53 383 72T390 121V369Q379 343 363 325T329 293Q295 270 259 263T194 255H118Q97 255 76 261T38 280ZM18 361Q18 337 26 321T49 294Q63 283 81 279T118 274H195Q221 274 254 281T318 308Q348 329
368 367T390 469V612Q389 636 381 652T359 679Q330 700 289 700H213Q187 700 153 693T89 665Q60 645 39 607T18 505V361Z" />
<glyph unicode=":" glyph-name="colon" horiz-adv-x="130" d="M30 139V0H0V139H30ZM30 428V290H0V428H30Z" />
<glyph unicode=";" glyph-name="semicolon" horiz-adv-x="130" d="M30 290H0V428H30V290ZM30 139V-21Q30 -84 -2 -114L-14 -101Q-2 -89 5 -70T12 -21V0H0V139H30Z" />
<glyph unicode="&lt;" glyph-name="less" horiz-adv-x="282" d="M184 501L30 248L184 0H154L0 248L154 501H184V501Z" />
<glyph unicode="=" glyph-name="equal" horiz-adv-x="569" d="M0 259V289H469V259H0ZM0 457V486H469V457H0Z" />
<glyph unicode="&gt;" glyph-name="greater" horiz-adv-x="284" d="M30 501L184 248L30 0H0L154 248L0 501H30Z" />
<glyph unicode="?" glyph-name="question" horiz-adv-x="449" d="M0 168V233Q0 266 8 296T37 350T90 387T175 401H232Q276 401 306 412T355 444T382 492T391 550Q391 581 383 608T356 656T307 688T232 700H205Q181 701 156 697T107 686T62 670T25 652V673Q60 690
108 704T205 719L234 718Q285 718 318 705T372 668T400 615T409 550Q409 517 401 487T372 433T319 397T234 383H177Q133 383 103 371T54 339T27 292T19 233V168H0ZM0 0H19V98H0V0Z" />
<glyph unicode="@" glyph-name="at" horiz-adv-x="508" d="M370 694Q387 681 397 661T408 613V229Q408 210 398 194T358 178Q331 178 318 194Q306 207 305 229Q277 208 243 194T174 178H171Q150 178 133 185T102 206Q74 234 74 274Q74 305 84 327T113 364Q131
380 155 389T206 405Q220 408 237 411T270 421Q285 429 294 439T304 468Q304 486 298 497T282 517Q271 525 258 528T231 532Q194 532 163 521T107 495L100 507Q125 521 158 533T231 546Q247 546 262 542T290 528Q303 518 310 503T318 468V242Q318 215 328 203Q337
191 358 191Q369 191 379 199T390 227V613Q390 637 382 653T359 680Q345 691 327 696T290 701H213Q187 701 154 694T90 666Q60 645 39 608T18 505V106Q18 83 26 67T49 40Q63 29 81 24T118 19H195Q221 19 255 26T318 54L329 38Q295 15 259 8T195 0H118Q97 0 76 6T38
25Q21 38 11 58T0 106V505Q0 573 23 615T79 681Q113 704 149 711T214 719H290Q311 719 332 714T370 694ZM304 430Q299 422 292 418T276 409Q259 401 241 398T209 392Q183 386 161 377T122 354Q105 340 97 321T88 274Q88 240 111 216T171 191H174Q207 193 242 208T304
246V430Z" />
<glyph unicode="A" glyph-name="A" horiz-adv-x="554" d="M452 0L357 290H95L0 0H-19L216 719H236L471 0H452ZM101 308H351L226 690L101 308Z" />
<glyph unicode="B" glyph-name="B" horiz-adv-x="519" d="M419 130Q419 111 416 89T401 47Q389 27 366 14T304 0H18H0V719H258Q284 719 305 713T343 690Q375 660 375 598Q374 598 374 578T375 521Q374 503 371 481T356 438Q351 430 344 422T327 409Q365 403 387
382Q419 350 419 289V130ZM18 701V410H258Q293 410 311 421T341 448Q351 464 353 484T356 521V598Q356 627 349 646T330 677Q306 701 258 701H18ZM401 289Q401 318 394 337T375 368Q349 392 303 392H259H18V19H303Q338 19 356 29T385 57Q395 73 398 93T401 130V289Z"
/>
<glyph unicode="C" glyph-name="C" horiz-adv-x="507" d="M116 19Q157 19 201 25T284 39T356 55T407 69V50Q389 45 357 37T285 20T201 6T116 0Q90 0 69 7T32 29Q0 59 0 121V598Q0 660 32 690Q48 706 69 712T116 719Q157 719 201 713T284 699T356 683T407 669V651Q389
656 357 664T285 681T201 695T116 701Q69 701 44 677Q32 665 25 646T18 598V121Q18 92 25 73T44 42Q68 19 116 19Z" />
<glyph unicode="D" glyph-name="D" horiz-adv-x="526" d="M394 690Q426 660 426 598V121Q426 59 394 29Q378 14 357 7T309 0Q258 0 204 8T104 28Q50 40 0 56V663Q50 679 104 691Q149 702 203 710T309 719Q335 719 356 713T394 690ZM407 598Q407 627 400 646T381
677Q357 701 309 701Q268 701 225 695T142 681T70 665T19 651V69Q37 64 69 56T141 39T224 25T309 19Q358 19 381 42Q393 54 400 73T407 121V598Z" />
<glyph unicode="E" glyph-name="E" horiz-adv-x="508" d="M45 677Q19 653 18 598V368H303V350H18V121Q19 66 45 42Q68 19 117 19Q157 19 201 25T284 39T356 55T407 69V50Q389 45 357 37T285 20T201 6T117 0Q62 0 32 29Q0 59 0 121V598Q0 660 32 690Q48 706 69
712T117 719Q157 719 201 713T284 699T356 683T407 669V651Q389 656 357 664T285 681T201 695T117 701Q69 701 45 677Z" />
<glyph unicode="F" glyph-name="F" horiz-adv-x="416" d="M45 677Q32 665 25 646T18 598V368H303V350H18V0H0V598Q0 660 32 690Q48 706 69 712T116 719Q157 719 201 713T284 699T356 683T407 669V651Q389 656 357 664T285 681T201 695T116 701Q69 701 45 677Z" />
<glyph unicode="G" glyph-name="G" horiz-adv-x="525" d="M44 677Q32 665 25 646T18 598V121Q18 92 25 73T44 42Q67 19 116 19Q156 19 200 25T283 39T355 55T406 69V262Q406 286 398 302T376 329Q347 350 306 350H294V368H306Q328 368 349 363T387 344Q404 330
414 310T425 262V56Q374 40 321 28Q275 17 221 9T116 0Q90 0 69 7T31 29Q-1 59 -1 121V598Q-1 660 31 690Q47 706 68 712T116 719Q167 719 221 711T321 691Q374 679 425 663V645Q374 661 321 673Q275 684 221 692T116 701Q68 701 44 677Z" />
<glyph unicode="H" glyph-name="H" horiz-adv-x="525" d="M407 718H425V0H407V349H18V0H0V718H18V368H407V718V718Z" />
<glyph unicode="I" glyph-name="I" horiz-adv-x="265" d="M165 701H91V19H165V0H0V19H73V701H0V719H165V701V701Z" />
<glyph unicode="J" glyph-name="J" horiz-adv-x="383" d="M283 718V121Q283 58 251 28Q235 13 214 7T167 0Q126 0 83 5T0 19V37Q40 29 83 24T167 18Q213 18 239 41Q251 53 258 72T265 121V718H283Z" />
<glyph unicode="K" glyph-name="K" horiz-adv-x="508" d="M425 0H414L402 1L140 427L18 301V0H0V719H18V327L398 719H423L153 440L425 0Z" />
<glyph unicode="L" glyph-name="L" horiz-adv-x="372" d="M17 719V121Q17 92 24 73T43 42Q67 19 115 19Q156 19 199 24T282 38V20Q242 12 199 6T115 0Q89 0 68 7T31 29Q-1 59 -1 121V719H17Z" />
<glyph unicode="M" glyph-name="M" horiz-adv-x="591" d="M491 719V0H472V679L255 207H236L19 679V0H0V719H21L246 233L470 719H491Z" />
<glyph unicode="N" glyph-name="N" horiz-adv-x="508" d="M408 719V0H390L18 677V0H0V719H18L390 43V719H408Z" />
<glyph unicode="O" glyph-name="O" horiz-adv-x="509" d="M0 505Q0 573 23 615T79 681Q113 704 149 711T214 719H290Q311 719 332 713T370 694Q387 681 397 661T408 613V214Q408 146 385 104T329 38Q295 15 259 8T195 0H118Q97 0 76 5T38 25Q21 38 11 58T0 106V505ZM18
106Q18 82 26 66T49 39Q63 28 81 24T118 19H195Q221 19 255 26T318 53Q348 74 369 111T390 214V613Q390 636 382 652T359 679Q345 690 327 695T290 700H213Q187 700 153 693T90 665Q60 645 39 607T18 505V106Z" />
<glyph unicode="P" glyph-name="P" horiz-adv-x="497" d="M408 365Q409 296 386 254T329 189Q298 168 263 160T204 151Q173 151 142 158T79 189Q61 202 45 220T18 264V0H0V365V612Q0 640 10 660T38 694Q55 707 76 712T118 718H195Q223 718 259 711T329 680Q363
657 386 615T408 504V365ZM319 204Q348 225 369 262T390 365V504Q390 569 369 607T318 665Q289 686 255 693T195 700H118Q99 700 81 695T49 679Q35 668 27 652T18 612V365Q19 300 39 263T90 204Q117 185 148 177T204 169Q230 171 260 178T319 204Z" />
<glyph unicode="Q" glyph-name="Q" horiz-adv-x="508" d="M454 2H443H431L377 90Q367 73 355 61T329 39Q297 17 266 10T204 2Q181 2 146 10T79 39Q46 62 23 104T0 215V506Q0 574 23 616T79 682Q113 705 149 712T214 720H290Q311 720 332 715T370 696Q387 683 398
663T408 614V215Q409 183 404 157T387 109L454 2ZM318 55Q347 73 366 107L307 204H329L376 128Q390 165 390 215V614Q390 638 382 654T359 681Q345 692 327 697T290 702H213Q187 702 154 695T90 667Q60 646 40 609T18 506V215Q19 151 39 113T90 55Q117 35 147 28T204
20Q230 19 260 27T318 55Z" />
<glyph unicode="R" glyph-name="R" horiz-adv-x="509" d="M329 682Q363 659 386 617T409 506V447Q409 378 386 336T329 271Q298 249 261 241L409 2H398H386L242 237Q229 235 218 234T195 233H119Q97 233 77 238T39 257Q27 266 19 277V2H0V614Q0 642 11 662T39
696Q56 709 76 714T119 720H195Q223 720 259 713T329 682ZM390 506Q390 571 370 608T319 667Q289 688 255 695T195 702H119Q100 702 82 697T50 681Q36 670 28 654T19 614V506V359V339Q19 315 27 299T50 272Q64 261 82 256T119 251H195Q221 251 255 258T319 286Q349
307 369 344T390 447V506Z" />
<glyph unicode="S" glyph-name="S" horiz-adv-x="479" d="M384 168Q384 135 376 105T348 51T295 14T210 0H180Q131 0 83 14T0 46V66Q16 57 37 49T82 33T131 22T180 18H208Q252 18 282 30T331 62T358 109T366 168V233Q366 264 358 291T331 338T282 370T208 382H151Q100
382 67 395T13 432T-16 486T-24 550Q-24 583 -16 613T12 667T66 704T151 718H180Q229 718 277 704T360 672V652Q344 661 323 669T279 685T230 696T180 700H153Q109 700 79 688T29 656T2 609T-6 550Q-6 519 2 492T29 445T78 413T153 401H210Q261 401 294 388T348
351T376 297T384 233V168Z" />
<glyph unicode="T" glyph-name="T" horiz-adv-x="403" d="M163 700V0H145V700H-59V718H367V700H163V700Z" />
<glyph unicode="U" glyph-name="U" horiz-adv-x="509" d="M390 719H409V214Q409 146 386 104T329 38Q296 15 260 8T195 0H119Q97 0 77 6T39 25Q22 38 11 58T0 106V719H19V106Q19 82 27 66T50 39Q64 28 82 24T119 19H195Q221 19 255 26T319 53Q349 74 369 112T390
214V719Z" />
<glyph unicode="V" glyph-name="V" horiz-adv-x="512" d="M470 719L235 0H215L-20 719H0L225 34L450 719H470Z" />
<glyph unicode="W" glyph-name="W" horiz-adv-x="814" d="M756 719L521 0H501L368 407L235 0H215L-20 719H0L225 34L450 719H470L378 438L511 34L736 719H756Z" />
<glyph unicode="X" glyph-name="X" horiz-adv-x="519" d="M221 359L426 -1H405L212 338L22 -1H0L201 358L0 719H22L211 379L405 719H426L221 359Z" />
<glyph unicode="Y" glyph-name="Y" horiz-adv-x="440" d="M402 719L105 -1H84L161 184L0 719H20L172 213L381 719H402Z" />
<glyph unicode="Z" glyph-name="Z" horiz-adv-x="502" d="M22 17H425V-1H0V21L406 701H-1V719H425V693L22 17Z" />
<glyph unicode="[" glyph-name="bracketleft" horiz-adv-x="226" d="M19 700V-161H126V-179H0V718H126V700H19Z" />
<glyph unicode="]" glyph-name="bracketright" horiz-adv-x="225" d="M0 700V718H126V-179H0V-161H108V700H0Z" />
<glyph unicode="_" glyph-name="underscore" horiz-adv-x="544" d="M444 -30H0V0H444V-30V-30Z" />
<glyph unicode="`" glyph-name="grave" horiz-adv-x="130" d="M30 719V559Q30 496 -2 466L-15 479Q-2 491 5 510T12 559V580H0V719H30Z" />
<glyph unicode="a" glyph-name="a" horiz-adv-x="453" d="M346 34Q359 19 388 19V0H387Q351 0 332 22Q318 39 315 70Q277 41 231 22T137 0H133Q104 0 80 10T38 39Q0 77 0 131Q0 173 14 203T53 254Q78 275 110 288T180 309Q200 314 223 318T268 332Q288 342 301
356T314 396Q314 420 306 436T283 463Q269 474 251 478T214 483Q163 483 121 467T45 433L36 449Q70 468 115 485T214 502Q236 502 256 496T294 477Q311 464 322 444T333 396V87Q333 50 346 34ZM136 19Q182 20 229 41T314 93V343Q306 334 296 327T275 315Q252 305
227 301T184 292Q148 284 118 272T65 240Q43 222 31 196T19 131Q19 108 27 88T51 52T87 28T133 19H136Z" />
<glyph unicode="b" glyph-name="b" horiz-adv-x="415" d="M0 719H18V456Q53 473 101 487T198 502Q224 502 245 495T283 473Q315 443 315 381V130Q314 111 311 89T296 47Q284 27 261 14T199 0H198V9V0Q151 2 104 21T17 70Q16 41 0 22Q-18 0 -55 0V19Q-26 19 -14
34Q0 50 0 87V719ZM296 381Q296 410 289 429T270 460Q247 483 198 483Q149 484 100 469T18 435V299V131V93Q56 62 104 41T198 19Q233 19 251 29T281 56Q291 73 293 92T296 130V381Z" />
<glyph unicode="c" glyph-name="c" horiz-adv-x="415" d="M19 121Q19 92 26 73T45 42Q69 18 117 18Q165 18 214 33T297 67Q301 69 305 71T315 76V56Q310 53 306 51T297 46Q262 29 214 15T117 0Q91 0 70 6T32 29Q0 59 0 121V381Q0 443 32 473Q48 488 69 495T117
502Q166 502 214 488T297 456Q301 454 305 452T315 446V425Q310 428 306 430T297 435Q264 453 215 468T117 483Q68 483 45 460Q33 448 26 429T19 381V121Z" />
<glyph unicode="d" glyph-name="d" horiz-adv-x="453" d="M333 86Q333 50 346 34Q359 19 388 19V0H387Q351 0 332 22Q318 39 315 70Q277 41 231 22T137 0H133Q104 0 80 10T38 39Q0 77 0 131V288Q0 356 23 398T80 464Q113 487 149 494T214 502Q236 502 257 496T295
477Q307 469 314 457V719H333V86ZM136 19Q182 20 229 41T314 93V112V396Q314 420 306 436T283 463Q269 474 251 478T214 483Q188 483 154 476T90 449Q61 428 40 391T19 288V131Q19 108 27 88T51 52T87 28T133 19H136Z" />
<glyph unicode="e" glyph-name="e" horiz-adv-x="433" d="M331 344Q331 325 328 303T313 261Q301 241 278 228T216 214H18V130Q18 107 26 87T50 51T86 27T132 18H135Q182 20 230 41T316 95L328 81Q289 47 238 25T136 0H132Q103 0 79 10T37 38Q0 75 0 130V303Q2
364 24 402T79 463Q112 486 148 493T213 501H215Q241 501 262 495T300 473Q305 467 310 460Q320 448 326 432T331 395V380V344ZM313 380Q313 424 296 449Q293 453 290 456T282 462Q268 473 250 478T213 483Q187 483 153 476T89 448Q63 430 44 398T19 315L18 232H215Q250
233 268 243T298 270Q308 287 310 306T313 344V380Z" />
<glyph unicode="f" glyph-name="f" horiz-adv-x="240" d="M218 718L214 700L205 702Q174 709 139 709Q90 709 67 686Q55 674 48 655T41 607V511H179V492H41V0H23V492H-33V511H23V607Q23 669 54 699Q70 715 91 721T139 728Q172 728 209 720L218 718Z" />
<glyph unicode="g" glyph-name="g" horiz-adv-x="451" d="M30 203Q18 192 18 178Q18 171 21 164Q23 157 29 152Q35 146 46 142T77 138H176Q225 138 258 125T312 89T342 38T351 -21Q351 -51 342 -79T313 -130T259 -165T176 -179Q127 -179 79 -165T-4 -133V-112Q29
-130 78 -145T176 -161Q218 -161 248 -150T297 -120T324 -76T333 -21Q333 8 324 33T296 78T247 108T174 119H77Q46 119 27 130Q9 140 3 158Q0 168 0 178Q0 202 17 217Q29 228 47 231Q34 244 26 256Q12 276 6 299T0 346Q0 369 6 392T26 435Q40 455 61 470T114 490Q144
495 174 498T234 501Q260 501 281 495T319 473Q351 443 351 380V311Q351 250 319 218Q303 203 282 197T234 190Q205 190 175 193T114 201Q94 204 81 211Q76 213 71 213T60 214Q41 214 30 203ZM41 266Q53 249 71 237T117 219Q146 214 176 211T234 208Q282 208 306
232Q332 255 333 311V380Q332 436 306 459Q282 483 234 483Q178 483 117 472Q90 467 72 455T41 425Q29 408 24 387T18 346Q18 325 23 304T41 266Z" />
<glyph unicode="h" glyph-name="h" horiz-adv-x="415" d="M315 0H296V381Q296 410 289 429T270 460Q247 483 198 483Q150 483 101 468T18 435V0H0V719H18V456Q53 473 101 487T198 502Q224 502 245 495T283 473Q315 443 315 381V0Z" />
<glyph unicode="i" glyph-name="i" horiz-adv-x="128" d="M28 502V0H10V502H28ZM28 621H10V719H28V621Z" />
<glyph unicode="j" glyph-name="j" horiz-adv-x="144" d="M44 719V621H26V719H44ZM26 502H44V-58Q44 -120 12 -150Q-4 -165 -25 -172T-72 -179H-81V-160H-72Q-24 -160 0 -137Q12 -125 19 -106T26 -58V502Z" />
<glyph unicode="k" glyph-name="k" horiz-adv-x="455" d="M322 0L214 196Q209 195 199 195Q150 195 102 209T19 241V0H0V251V446V719H19V456Q54 473 102 487T199 502Q225 502 246 495T283 473Q315 443 315 381V316Q315 255 283 223Q265 206 234 198L343 0H322ZM19
262Q35 253 56 244T100 229T149 218T199 213Q246 213 270 237Q283 248 290 267T297 316V381Q297 410 290 429T270 460Q247 483 199 483Q175 483 150 479T101 469T56 453T19 435V262Z" />
<glyph unicode="l" glyph-name="l" horiz-adv-x="208" d="M0 719H18V121Q18 92 25 73T45 42Q69 18 116 18H126V0H116Q90 0 69 6T32 29Q0 59 0 121V719Z" />
<glyph unicode="m" glyph-name="m" horiz-adv-x="711" d="M315 9V0H297V381Q297 410 290 429T270 460Q247 483 199 483Q175 483 150 479T101 468T56 453T19 435V0H0V446L5 448Q22 458 44 467T92 484T145 497T199 502Q225 502 246 495T283 473Q304 453 312 415Q322
431 333 443T358 464Q392 487 428 494T493 502Q514 502 535 496T573 477Q590 464 600 444T611 396V0H593V396Q593 419 585 435T562 462Q548 473 530 478T493 483H492Q466 483 433 476T369 448Q352 437 339 421T315 382V9Z" />
<glyph unicode="n" glyph-name="n" horiz-adv-x="414" d="M296 0V381Q296 410 289 429T270 460Q246 483 198 483Q149 483 100 468T18 435V0H0V446L4 448Q21 458 43 467T91 484T144 497T198 502Q224 502 245 495T282 473Q314 443 314 381V9V0H296Z" />
<glyph unicode="o" glyph-name="o" horiz-adv-x="431" d="M293 477Q310 464 321 444T331 395V214Q332 145 309 103T252 38Q218 15 182 8T118 0Q96 0 76 5T38 24Q21 37 10 57T0 106V287Q-1 356 22 398T79 463Q113 486 149 493T213 501Q234 501 255 496T293 477ZM241
53Q271 73 292 111T313 214V395Q313 419 305 435T282 462Q268 473 250 478T213 483Q187 483 153 476T89 448Q60 427 39 390T18 287V106Q18 82 26 66T49 39Q63 28 81 23T118 18Q144 18 178 25T241 53Z" />
<glyph unicode="p" glyph-name="p" horiz-adv-x="415" d="M0 446L5 448Q40 468 92 484T198 502Q253 502 283 473Q315 443 315 381V130Q315 111 312 89T297 47Q285 27 261 14T198 0V9V0Q152 2 105 21T18 69V-190H0V446ZM199 18Q234 19 252 29T281 56Q291 73 294
92T296 130V273V381Q296 436 270 460Q247 483 198 483Q150 483 101 468T18 435V92Q56 61 104 41T199 18Z" />
<glyph unicode="q" glyph-name="q" horiz-adv-x="432" d="M332 -190H314V69Q276 40 230 21T136 0H132Q103 0 79 10T37 39Q20 57 10 80T0 131V288Q-1 356 22 398T79 464Q113 487 149 494T213 502Q235 502 256 496T294 477Q310 465 320 447T332 405V-190ZM314 396Q313
419 305 435T283 462Q269 473 251 478T213 483Q187 483 153 476T90 448Q60 428 39 390T18 288V131Q18 108 26 88T50 52T86 27T132 18H136Q181 20 228 40T314 92V396Z" />
<glyph unicode="r" glyph-name="r" horiz-adv-x="318" d="M270 460Q245 483 198 483Q174 483 149 479T101 468T56 453T18 435V0H0V445L4 448Q21 458 43 467T91 484T144 496T198 501Q224 501 245 495T283 473L270 460Z" />
<glyph unicode="s" glyph-name="s" horiz-adv-x="395" d="M315 106Q315 67 294 41Q292 37 289 34T283 28Q267 13 246 7T199 0H197Q148 0 100 14T17 46V66Q33 57 54 49T98 34T147 23T197 18Q237 18 266 39Q270 42 273 45T279 52Q287 64 292 81T297 121V140Q297
157 294 176T281 213Q271 229 253 239T200 251H116Q78 251 55 264T19 297Q7 317 4 339T0 380V395Q0 435 22 460Q26 467 32 473Q48 488 69 494T117 501H119Q168 501 216 487T299 455V435Q282 444 261 452T217 467T168 478T119 483Q99 483 82 478T50 462Q46 459 43
456T36 449Q19 424 19 380Q19 363 21 343T34 307Q44 291 62 281T116 269H200Q238 269 261 256T297 222Q309 202 312 180T315 140V106Z" />
<glyph unicode="t" glyph-name="t" horiz-adv-x="240" d="M43 483V121Q43 92 50 73T69 42Q94 18 141 18H150V0H141Q115 0 94 6T57 28Q25 60 25 121V483H-30V501H25V718H43V501H150V483H43Z" />
<glyph unicode="u" glyph-name="u" horiz-adv-x="415" d="M32 28Q0 60 0 121V492V501H19V121Q19 92 26 73T45 42Q69 18 117 18Q141 18 166 22T214 33T259 48T297 66V501H315V56L310 53Q293 43 271 34T224 17T171 5T117 0Q91 0 70 6T32 28Z" />
<glyph unicode="v" glyph-name="v" horiz-adv-x="384" d="M282 501H301L149 0H130L-19 501H0L139 32L282 501Z" />
<glyph unicode="w" glyph-name="w" horiz-adv-x="711" d="M296 501H315V121Q315 92 322 73T341 42Q365 18 413 18Q437 18 462 22T510 33T555 48T593 66V501H611V56L606 53Q589 43 567 34T520 17T467 5T413 0Q387 0 366 6T328 28Q323 33 319 39T310 53Q293 43 271
34T223 17T170 5T116 0Q90 0 69 6T32 28Q0 60 0 121V501H18V121Q18 92 25 73T45 42Q69 18 116 18Q140 18 165 22T214 33T259 48T296 66V501Z" />
<glyph unicode="x" glyph-name="x" horiz-adv-x="366" d="M-9 0H-30L124 248L-30 501H-8L133 268L278 501H299L144 250L300 0H278L135 231L-9 0Z" />
<glyph unicode="y" glyph-name="y" horiz-adv-x="432" d="M355 501H374L166 -61Q144 -123 103 -151T11 -179H9H0V-160H9Q57 -160 92 -137T149 -55L171 4L-12 501H7L181 30L355 501Z" />
<glyph unicode="z" glyph-name="z" horiz-adv-x="408" d="M22 18H307V0H1V20L289 483H0V501H308V478L22 18Z" />
</font>
</defs>
</svg>
